<svg width="43" height="42" viewBox="0 0 43 42" fill="none" xmlns="http://www.w3.org/2000/svg">
<mask id="mask0_5_49" style="mask-type:alpha" maskUnits="userSpaceOnUse" x="0" y="0" width="43" height="42">
<rect x="0.5" width="42" height="42" fill="#D9D9D9"/>
</mask>
<g mask="url(#mask0_5_49)">
<path d="M21.5 20.4613C19.8156 20.4613 18.3737 19.8616 17.1742 18.6621C15.9747 17.4626 15.375 16.0207 15.375 14.3364C15.375 12.652 15.9747 11.2101 17.1742 10.0106C18.3737 8.81117 19.8156 8.21143 21.5 8.21143C23.1843 8.21143 24.6262 8.81117 25.8257 10.0106C27.0252 11.2101 27.6249 12.652 27.6249 14.3364C27.6249 16.0207 27.0252 17.4626 25.8257 18.6621C24.6262 19.8616 23.1843 20.4613 21.5 20.4613ZM8.375 33.7882V29.8979C8.375 29.0408 8.60778 28.2472 9.07334 27.5169C9.53887 26.7866 10.1609 26.2252 10.9394 25.8325C12.6692 24.9845 14.4142 24.3484 16.1743 23.9244C17.9344 23.5003 19.7096 23.2883 21.5 23.2883C23.2903 23.2883 25.0656 23.5003 26.8256 23.9244C28.5857 24.3484 30.3307 24.9845 32.0605 25.8325C32.839 26.2252 33.461 26.7866 33.9266 27.5169C34.3921 28.2472 34.6249 29.0408 34.6249 29.8979V33.7882H8.375ZM11 31.1632H32V29.8979C32 29.5434 31.8973 29.2152 31.692 28.9135C31.4867 28.6117 31.208 28.3655 30.8557 28.1748C29.348 27.4322 27.8107 26.8696 26.2437 26.487C24.6767 26.1045 23.0954 25.9132 21.5 25.9132C19.9045 25.9132 18.3232 26.1045 16.7562 26.487C15.1892 26.8696 13.6519 27.4322 12.1442 28.1748C11.7919 28.3655 11.5132 28.6117 11.3079 28.9135C11.1026 29.2152 11 29.5434 11 29.8979V31.1632ZM21.5 17.8364C22.4625 17.8364 23.2864 17.4937 23.9718 16.8083C24.6572 16.1228 25 15.2989 25 14.3364C25 13.3739 24.6572 12.5499 23.9718 11.8645C23.2864 11.1791 22.4625 10.8364 21.5 10.8364C20.5375 10.8364 19.7135 11.1791 19.0281 11.8645C18.3427 12.5499 18 13.3739 18 14.3364C18 15.2989 18.3427 16.1228 19.0281 16.8083C19.7135 17.4937 20.5375 17.8364 21.5 17.8364Z" fill="white"/>
</g>
</svg>
