<svg width="32" height="32" viewBox="0 0 32 32" fill="none" xmlns="http://www.w3.org/2000/svg">
<path d="M32 16.0986C32 7.25963 24.833 0.0986328 16 0.0986328C7.161 0.0986328 0 7.25963 0 16.0986C0 24.0826 5.849 30.7026 13.5 31.9016V20.7246H9.437V16.0996H13.5V12.5726C13.5 8.56363 15.885 6.34963 19.541 6.34963C21.292 6.34963 23.125 6.66163 23.125 6.66163V10.5986H21.104C19.12 10.5986 18.5 11.8336 18.5 13.0986V16.0986H22.937L22.224 20.7236H18.5V31.9006C26.145 30.7016 32 24.0816 32 16.0976V16.0986Z" fill="black"/>
</svg>
