<svg width="22" height="22" viewBox="0 0 22 22" fill="none" xmlns="http://www.w3.org/2000/svg">
<mask id="mask0_15_122" style="mask-type:alpha" maskUnits="userSpaceOnUse" x="0" y="0" width="22" height="22">
<rect width="22" height="22" fill="#D9D9D9"/>
</mask>
<g mask="url(#mask0_15_122)">
<path d="M1.83331 17.4167V15.5833H11V17.4167H1.83331ZM1.83331 12.8333V11H6.41665V12.8333H1.83331ZM1.83331 8.25V6.41667H6.41665V8.25H1.83331ZM18.8833 17.4167L15.3541 13.8875C14.9875 14.1472 14.5864 14.342 14.151 14.4719C13.7156 14.6017 13.2764 14.6667 12.8333 14.6667C11.5653 14.6667 10.4844 14.2198 9.59061 13.326C8.69686 12.4323 8.24998 11.3514 8.24998 10.0833C8.24998 8.81528 8.69686 7.73438 9.59061 6.84063C10.4844 5.94687 11.5653 5.5 12.8333 5.5C14.1014 5.5 15.1823 5.94687 16.076 6.84063C16.9698 7.73438 17.4166 8.81528 17.4166 10.0833C17.4166 10.5264 17.3517 10.9656 17.2219 11.401C17.092 11.8365 16.8972 12.2375 16.6375 12.6042L20.1666 16.1333L18.8833 17.4167ZM12.8333 12.8333C13.5972 12.8333 14.2465 12.566 14.7812 12.0313C15.316 11.4965 15.5833 10.8472 15.5833 10.0833C15.5833 9.31944 15.316 8.67014 14.7812 8.13542C14.2465 7.60069 13.5972 7.33333 12.8333 7.33333C12.0694 7.33333 11.4201 7.60069 10.8854 8.13542C10.3507 8.67014 10.0833 9.31944 10.0833 10.0833C10.0833 10.8472 10.3507 11.4965 10.8854 12.0313C11.4201 12.566 12.0694 12.8333 12.8333 12.8333Z" fill="black"/>
</g>
</svg>
