<svg width="32" height="26" viewBox="0 0 32 26" fill="none" xmlns="http://www.w3.org/2000/svg">
<path d="M31.939 3.09412C30.762 3.61012 29.502 3.96512 28.174 4.12612C29.529 3.31312 30.565 2.02712 31.059 0.495117C29.788 1.23512 28.382 1.77112 26.887 2.07412C25.695 0.798117 23.991 -0.00488281 22.1 -0.00488281C18.475 -0.00488281 15.537 2.93212 15.537 6.55212C15.537 7.07312 15.6 7.57312 15.709 8.04712C10.256 7.79212 5.422 5.17212 2.189 1.21412C1.621 2.17812 1.298 3.29812 1.298 4.51712C1.298 6.79812 2.459 8.79812 4.214 9.97412C3.141 9.94312 2.131 9.64612 1.246 9.15712V9.23612C1.246 12.4171 3.506 15.0691 6.506 15.6731C5.959 15.8181 5.375 15.9021 4.782 15.9021C4.361 15.9021 3.959 15.8611 3.558 15.7871C4.402 18.3911 6.818 20.2871 9.698 20.3441C7.459 22.0991 4.621 23.1451 1.563 23.1451C1.042 23.1451 0.522 23.1201 0 23.0571C2.917 24.9171 6.36 26.0051 10.079 26.0051C22.146 26.0051 28.74 16.0101 28.74 7.35412C28.74 7.07812 28.74 6.79712 28.719 6.51512C30.006 5.59812 31.12 4.43612 32 3.11912L31.939 3.09412Z" fill="black"/>
</svg>
